<?xml version="1.0" encoding="UTF-8" standalone="no"?>
<!-- Created with Inkscape (http://www.inkscape.org/) -->

<svg
   xmlns:dc="http://purl.org/dc/elements/1.1/"
   xmlns:cc="http://creativecommons.org/ns#"
   xmlns:rdf="http://www.w3.org/1999/02/22-rdf-syntax-ns#"
   xmlns:svg="http://www.w3.org/2000/svg"
   xmlns="http://www.w3.org/2000/svg"
   xmlns:sodipodi="http://sodipodi.sourceforge.net/DTD/sodipodi-0.dtd"
   xmlns:inkscape="http://www.inkscape.org/namespaces/inkscape"
   width="24.660542mm"
   height="24.654135mm"
   viewBox="0 0 87.379872 87.35717"
   id="svg2"
   version="1.1"
   inkscape:version="0.91 r13725"
   sodipodi:docname="drawing.svg">
  <defs
     id="defs4" />
  <sodipodi:namedview
     id="base"
     pagecolor="#ffffff"
     bordercolor="#666666"
     borderopacity="1.0"
     inkscape:pageopacity="0.0"
     inkscape:pageshadow="2"
     inkscape:zoom="0.42500548"
     inkscape:cx="-179.31298"
     inkscape:cy="-100.82467"
     inkscape:document-units="px"
     inkscape:current-layer="layer1"
     showgrid="false"
     inkscape:window-width="1366"
     inkscape:window-height="717"
     inkscape:window-x="0"
     inkscape:window-y="0"
     inkscape:window-maximized="1"
     fit-margin-top="0"
     fit-margin-left="0"
     fit-margin-right="0"
     fit-margin-bottom="0"
     showborder="false" />
  <metadata
     id="metadata7">
    <rdf:RDF>
      <cc:Work
         rdf:about="">
        <dc:format>image/svg+xml</dc:format>
        <dc:type
           rdf:resource="http://purl.org/dc/dcmitype/StillImage" />
        <dc:title></dc:title>
      </cc:Work>
    </rdf:RDF>
  </metadata>
  <g
     inkscape:label="Layer 1"
     inkscape:groupmode="layer"
     id="layer1"
     transform="translate(-191.55103,-308.58767)">
    <g
       id="g4351"
       transform="matrix(0.06705444,0,0,0.06705444,124.80009,286.42365)">
      <path
         style="fill:#d0d0d0"
         d="m 1627.0376,1633.1676 c -126.071,-4.9248 -239.5993,-41.5145 -342.648,-110.4341 -36.0044,-24.0799 -67.5536,-50.287 -100.0325,-83.0943 -38.6444,-39.0351 -68.8628,-77.8021 -96.5506,-123.8643 -96.67086,-160.8242 -118.68963,-357.30163 -60.107,-536.3451 75.4402,-230.56459 274.3165,-401.24672 513.3381,-440.56364 37.3763,-6.14805 65.1278,-8.32852 106,-8.32852 40.8722,0 68.6237,2.18047 106,8.32852 165.7777,27.26894 314.4838,117.88039 416.0395,253.50642 142.0834,189.75003 169.4303,442.30012 71.2938,658.40232 -26.0421,57.3462 -60.9475,111.3332 -103.7715,160.5 -12.2301,14.0415 -42.7164,44.6377 -57.5618,57.7692 -108.391,95.8776 -242.7089,152.4716 -386,162.6386 -16.3373,1.1592 -53.1406,1.9872 -66,1.4849 z m 59.0501,-104.4353 c 118.0308,-9.1493 224.3153,-52.1532 314.0054,-127.0499 16.1258,-13.466 45.9825,-42.7962 60.0848,-59.025 79.6547,-91.6666 125.4304,-202.5323 133.9354,-324.3825 1.5104,-21.63909 0.6614,-72.69181 -1.5382,-92.50001 C 2180.5183,817.2007 2141.5059,721.74894 2075.4275,639.1492 1994.9899,538.60012 1881.1234,469.14894 1756.0376,444.34213 c -41.4966,-8.22954 -61.0066,-10.02369 -109,-10.02369 -47.9934,0 -67.5034,1.79415 -109,10.02369 -89.0198,17.65426 -171.6589,57.38688 -244,117.31449 -15.6813,12.99043 -54.344,51.74112 -67.4647,67.61827 -66.5416,80.52091 -107.6411,172.414 -121.9715,272.71245 -4.4744,31.31592 -5.0638,40.60285 -5.0638,79.78755 0,39.18471 0.5894,48.47161 5.0638,79.78751 13.3303,93.2989 51.2797,182.3102 109.7911,257.5177 28.2986,36.3736 67.0926,74.3848 104.0896,101.9891 83.6933,62.4456 181.8304,99.1641 287.5555,107.5905 15.4412,1.2307 64.5357,1.2752 80.0501,0.073 z m -89.4787,-246.5288 c -1.418,-1.4181 -1.5714,-20.9827 -1.5714,-200.4286 0,-179.4459 0.1534,-199.01055 1.5714,-200.42858 1.3857,-1.38569 7.3464,-1.57143 50.4286,-1.57143 43.0823,0 49.0429,0.18574 50.4286,1.57143 1.418,1.41803 1.5714,20.98268 1.5714,200.42858 0,179.4459 -0.1534,199.0105 -1.5714,200.4286 -1.3857,1.3857 -7.3463,1.5714 -50.4286,1.5714 -43.0822,0 -49.0429,-0.1857 -50.4286,-1.5714 z m 0,-500.00004 c -1.3857,-1.38569 -1.5714,-7.34632 -1.5714,-50.42857 0,-43.08225 0.1857,-49.04288 1.5714,-50.42857 1.3857,-1.38569 7.3464,-1.57143 50.4286,-1.57143 43.0823,0 49.0429,0.18574 50.4286,1.57143 1.3857,1.38569 1.5714,7.34632 1.5714,50.42857 0,43.08225 -0.1857,49.04288 -1.5714,50.42857 -1.3857,1.38569 -7.3463,1.57143 -50.4286,1.57143 -43.0822,0 -49.0429,-0.18574 -50.4286,-1.57143 z"
         id="path4365"
         inkscape:connector-curvature="0" />
      <path
         style="fill:#adadad"
         d="m 1620.5376,1632.1918 c -55.7282,-3.3302 -87.2552,-8.0477 -136.5,-20.4251 -98.282,-24.7027 -193.8298,-76.1892 -272,-146.569 -61.8418,-55.6786 -111.8767,-121.6871 -148.5108,-195.9228 -37.6539,-76.3022 -58.4696,-152.0722 -65.65854,-239 -1.63213,-19.7355 -1.62948,-76.75353 0.005,-97.00001 9.75084,-120.82724 50.12334,-232.00661 119.55224,-329.22874 41.1805,-57.66553 94.2025,-110.68726 151.8834,-151.8824 97.3249,-69.50861 207.8149,-109.63541 329.2287,-119.56644 19.3437,-1.58221 77.6563,-1.58221 97,0 144.225,11.79687 273.1485,66.23955 381.3102,161.02221 15.2781,13.38831 45.4027,43.43182 58.6988,58.54093 67.913,77.17292 117.1573,170.51303 142.5068,270.11444 13.4659,52.90916 19.3962,101.67557 19.3962,159.5 0,58.08531 -5.9745,106.99191 -19.5459,160.00001 -37.0496,144.7116 -122.2449,271.8338 -242.3661,361.6413 -97.573,72.9495 -211.2014,116.1205 -334,126.897 -16.2383,1.4251 -68.361,2.6339 -81,1.8786 z m 61.6705,-102.4587 c 17.8223,-1.2112 43.5523,-4.2451 59.4907,-7.0148 155.9011,-27.092 292.4548,-120.2932 374.9955,-255.9434 88.8214,-145.9721 104.03,-328.52466 40.6882,-488.39135 -59.1335,-149.24559 -182.7433,-266.31023 -334.8449,-317.11484 -41.0287,-13.70431 -79.6953,-21.79911 -127.5,-26.69194 -16.6376,-1.70287 -79.3624,-1.70287 -96,0 -47.8047,4.89283 -86.4713,12.98763 -127.5,26.69194 -169.9969,56.78194 -302.5608,195.18109 -352.0212,367.51661 -34.9341,121.7216 -27.1373,252.14898 22.004,368.08748 37.511,88.4991 99.5128,167.3888 177.0172,225.2329 61.5777,45.9573 136.9244,80.314 210.8388,96.1384 24.9688,5.3456 55.5826,9.704 80.1612,11.4123 17.6837,1.2291 55.1319,1.2686 72.6705,0.077 z m -84.9705,-248.1582 c -1.7462,-1.7462 -1.7462,-397.85377 0,-399.60001 1.7289,-1.72889 97.8711,-1.72889 99.6,0 1.7462,1.74624 1.7462,397.85381 0,399.60001 -1.7289,1.7289 -97.8711,1.7289 -99.6,0 z m 0,-500.00001 c -1.7289,-1.72889 -1.7289,-97.87111 0,-99.6 1.7289,-1.72889 97.8711,-1.72889 99.6,0 1.7289,1.72889 1.7289,97.87111 0,99.6 -1.7289,1.72889 -97.8711,1.72889 -99.6,0 z"
         id="path4363"
         inkscape:connector-curvature="0" />
      <path
         style="fill:#8f8f8f"
         d="m 1609.0376,1631.1735 c -25.3653,-2.0937 -32.9389,-2.8673 -48.7166,-4.9761 -187.4463,-25.0534 -354.4508,-130.9329 -458.8318,-290.8956 -53.3436,-81.7485 -88.0502,-176.8167 -99.8565,-273.5269 -3.72513,-30.5141 -4.09478,-37.8895 -4.05962,-81.00001 0.0313,-38.37227 0.30504,-45.97546 2.32226,-64.5 7.71066,-70.80857 24.66626,-134.83455 52.20496,-197.1309 49.3183,-111.56486 130.5929,-208.40206 232.5236,-277.04764 95.4944,-64.31105 203.5945,-101.30185 319.4137,-109.30031 18.6686,-1.28925 67.3315,-1.28925 86,0 115.5656,7.98095 224.1189,45.12381 319.3867,109.28212 118.1771,79.58659 207.4106,195.85616 253.177,329.88468 16.834,49.29898 26.5359,95.29857 32.6517,154.81205 2.0565,20.01095 1.711,94.13741 -0.5382,115.50001 -9.7375,92.4844 -34.9476,174.6968 -76.9679,251 -73.9769,134.3318 -191.4253,237.8827 -333.2093,293.7807 -56.6853,22.3481 -109.8776,35.1036 -176.5,42.3246 -13.6305,1.4774 -86.7753,2.8023 -99,1.7933 z m 60.5,-100.4097 c 81.2631,-3.7422 151.9667,-21.904 222.5,-57.154 56.447,-28.2102 99.4657,-59.149 143.5758,-103.2591 20.885,-20.885 33.9226,-35.7984 50.3341,-57.5758 63.8176,-84.6838 100.682,-182.6177 109.1621,-290 1.5009,-19.0063 1.4954,-62.45675 -0.01,-82.00001 -12.8096,-166.24413 -97.5668,-314.92954 -233.9148,-410.34438 -72.0478,-50.4183 -158.6998,-83.52519 -246.1472,-94.04481 -43.9619,-5.28846 -92.0381,-5.28846 -136,0 -151.866,18.26895 -290.7788,101.15226 -380.2211,226.86152 -56.7145,79.71101 -90.401,171.76351 -99.3652,271.52767 -1.9075,21.22938 -2.1484,68.39981 -0.4544,89.00001 9.7946,119.1109 54.4645,226.9371 131.1187,316.5 13.1438,15.3573 42.9633,45.1861 58.422,58.4403 34.8887,29.9134 70.5444,53.4513 113.5,74.9265 69.0572,34.5243 142.0872,53.5162 219.3618,57.0464 24.8143,1.1337 25.1541,1.1342 48.1382,0.076 z m -72.5,-448.9889 0,-200.00001 50,0 50,0 0,200.00001 0,200 -50,0 -50,0 0,-200 z m 0,-350.00001 0,-50 50,0 50,0 0,50 0,50 -50,0 -50,0 0,-50 z"
         id="path4361"
         inkscape:connector-curvature="0" />
      <path
         style="fill:#6f6f6f"
         d="m 1618.0376,1631.1969 c -43.5691,-2.8232 -66.5739,-5.693 -100.1575,-12.4943 -272.6086,-55.2082 -481.8015,-280.8849 -515.7855,-556.4277 -3.69269,-29.9406 -4.51254,-44.5659 -4.51254,-80.50001 0,-35.97498 0.82517,-50.66583 4.52164,-80.5 15.7696,-127.27857 68.4422,-245.37291 153.874,-344.99221 11.9728,-13.96111 51.2832,-53.33854 65.0599,-65.17077 96.6901,-83.04327 210.4666,-135.08653 334,-152.77718 33.1677,-4.7498 51.6111,-5.94075 92,-5.94075 40.3889,0 58.8323,1.19095 92,5.94075 175.5938,25.14598 333.4634,121.46993 437.4193,266.89075 62.3786,87.25954 102.4323,189.90413 115.5237,296.04941 3.6727,29.77849 4.4992,44.56564 4.4992,80.5 0,37.17111 -0.8464,51.44721 -4.9527,83.53891 -15.9324,124.5159 -68.7204,242.9089 -151.1456,338.9893 -111.4324,129.8933 -265.5401,209.1857 -437.3439,225.0247 -15.3565,1.4158 -72.5784,2.6741 -85,1.8691 z m 61.5,-100.4495 c 8.25,-0.548 21.3,-1.6764 29,-2.5073 182.8676,-19.7351 345.9734,-132.8278 428.9515,-297.4224 37.7112,-74.8036 57.0641,-151.958 59.2072,-236.04281 2.6331,-103.30687 -24.3173,-206.40504 -77.0625,-294.80027 -84.0553,-140.86788 -226.0702,-236.72574 -387.5962,-261.6215 -116.406,-17.94148 -238.7654,2.09828 -340,55.68451 -140.0413,74.12767 -240.6936,201.8329 -278.4079,353.23726 -40.0406,160.74371 -6.737,329.24491 91.3005,461.93911 63.4154,85.8331 151.4383,151.7811 252.1074,188.8826 32.0943,11.8283 69.4822,21.5044 104.7631,27.1128 35.4522,5.6358 82.7665,7.8613 117.7369,5.538 z m -82.0342,-250.2131 c -0.2633,-0.6927 -0.3633,-90.5844 -0.2223,-199.7594 l 0.2565,-198.50001 49.5,0 49.5,0 0,199.50001 0,199.5 -49.2778,0.2594 c -38.8901,0.2048 -49.3786,-0.01 -49.7564,-1 z m 0,-499.99997 c -0.2653,-0.69269 -0.3654,-23.08444 -0.2222,-49.75944 l 0.2604,-48.5 49.5,0 49.5,0 0,49.5 0,49.5 -49.2778,0.25944 c -38.8885,0.20474 -49.3795,-0.006 -49.7603,-1 z"
         id="path4359"
         inkscape:connector-curvature="0" />
      <path
         style="fill:#515151"
         d="m 1619.5376,1630.7053 c -117.9145,-4.6952 -234.1957,-42.7708 -333.3623,-109.1577 -126.4015,-84.6193 -220.9735,-213.4793 -262.679,-357.9158 -26.37749,-91.3517 -32.67591,-184.44585 -18.8327,-278.35691 15.4791,-105.00845 58.1358,-206.68272 122.926,-293 51.1137,-68.09672 113.4458,-124.08803 188.448,-169.27787 8.525,-5.13643 27.425,-15.29395 42,-22.57226 98.4738,-49.17485 201.6937,-71.4356 313.25,-67.55657 120.0115,4.17303 234.142,41.02052 335.25,108.2368 108.849,72.36244 195.039,178.27163 243.4677,299.1699 50.0035,124.82996 60.0307,263.42341 28.4694,393.50001 -47.8134,197.0581 -184.3983,360.4318 -369.9371,442.494 -62.3182,27.5628 -127.9474,44.7219 -198.9582,52.0187 -14.2453,1.4637 -56.9858,3.5876 -66.5418,3.3066 -2.475,-0.073 -13.05,-0.4728 -23.5,-0.8889 z m 71.5,-100.3989 c 110.0845,-9.0683 213.3828,-49.7064 298.5,-117.4315 23.6028,-18.78 56.484,-50.4151 75.4597,-72.6 50.758,-59.3423 89.2142,-130.4847 110.5045,-204.4288 9.1511,-31.7832 15.4685,-64.0284 19.2139,-98.0712 2.6006,-23.6376 2.6038,-88.31082 0.01,-112.00001 -12.3538,-112.63577 -54.2027,-211.54635 -126.3102,-298.53621 -13.8206,-16.67304 -50.1643,-53.01665 -66.8373,-66.83724 -87.4055,-72.44842 -184.355,-113.5065 -298.0406,-126.21826 -19.2245,-2.14959 -72.4044,-2.98918 -94.0065,-1.48415 -118.1656,8.23266 -224.6462,51.12399 -317.0297,127.70241 -16.637,13.79069 -52.9726,50.11836 -66.8882,66.87345 -30.923,37.23313 -52.6383,70.83553 -73.617,113.91545 -29.2839,60.13492 -45.8513,119.21898 -53.1602,189.58455 -2.0638,19.8686 -1.7393,86.32851 0.5224,107.00001 9.9097,90.5745 38.758,171.7384 87.4014,245.9021 22.3996,34.1514 42.337,58.4607 72.6639,88.5979 44.0055,43.7303 87.6365,75.0464 142.6691,102.4007 62.496,31.0641 129.1815,49.6505 199.4448,55.5887 21.0078,1.7754 68.1892,1.7977 89.5,0.042 z m -92.8,-249.7315 c -1.7462,-1.7462 -1.7462,-395.85379 0,-397.60001 1.7284,-1.7284 95.8716,-1.7284 97.6,0 1.7462,1.74622 1.7462,395.85381 0,397.60001 -1.7284,1.7284 -95.8716,1.7284 -97.6,0 z m 0,-500.00001 c -1.7284,-1.7284 -1.7284,-95.8716 0,-97.6 1.7284,-1.7284 95.8716,-1.7284 97.6,0 1.7284,1.7284 1.7284,95.8716 0,97.6 -1.7284,1.7284 -95.8716,1.7284 -97.6,0 z"
         id="path4357"
         inkscape:connector-curvature="0" />
      <path
         style="fill:#2e2e2e"
         d="m 1614.5376,1630.1575 c -53.1168,-3.328 -102.0789,-11.5701 -148,-24.9138 -243.2231,-70.6758 -424.3006,-277.6816 -461.4012,-527.4688 -8.68507,-58.4741 -9.28695,-123.43608 -1.6729,-180.55626 13.2223,-99.1923 47.8077,-191.27251 103.0813,-274.44375 102.123,-153.66648 265.6026,-257.21183 447.4928,-283.43476 220.0162,-31.71952 440.2062,51.01469 585.3527,219.9404 129.7453,151.00127 182.5757,351.15264 144.5124,547.49437 -37.6407,194.1622 -165.7492,363.5827 -342.8651,453.4309 -75.3694,38.2338 -150.9116,59.9545 -237,68.1449 -15.5947,1.4837 -75.3906,2.6908 -89.5,1.8068 z m 83.5,-99.882 c 80.2657,-7.6792 155.2413,-31.4564 224.0726,-71.0606 135.2822,-77.8388 231.7076,-210.4809 263.8424,-362.94 8.2615,-39.1953 11.4732,-71.2477 11.4732,-114.50001 0,-35.08781 -1.3131,-53.49764 -5.9915,-84 -13.7493,-89.64197 -49.2599,-174.23167 -103.4803,-246.5 -61.9307,-82.54505 -144.6915,-145.41037 -240.9164,-183.0006 -46.3918,-18.12295 -95.2437,-29.64609 -149,-35.146 -23.0079,-2.35399 -78.9927,-2.35395 -102,7e-5 -44.4037,4.54322 -82.1699,12.41744 -121.4956,25.33174 -104.551,34.33384 -194.752,98.17094 -264.1242,186.92609 -10.5573,13.50712 -32.9294,47.03548 -41.6294,62.3887 -91.2149,160.97098 -96.8642,354.50241 -15.1492,518.98101 53.7282,108.1459 139.2104,193.8453 247.3824,248.011 67.5263,33.8129 141.2725,53.0907 219.516,57.3833 14.3937,0.7896 61.5821,-0.3518 77.5,-1.8747 z m -100,-448.5006 0,-199.00001 49,0 49,0 0,199.00001 0,199 -49,0 -49,0 0,-199 z m 0,-350.00001 0,-49 49,0 49,0 0,49 0,49 -49,0 -49,0 0,-49 z"
         id="path4355"
         inkscape:connector-curvature="0" />
      <path
         style="fill:#000000"
         d="m 1608.5376,1629.1354 c -2.75,-0.2162 -12.425,-1.0714 -21.5,-1.9002 -156.8186,-14.323 -304.4839,-86.6675 -412.527,-202.1059 -91.2496,-97.4955 -149.5233,-217.8915 -168.8513,-348.8544 -5.3412,-36.1907 -6.09688,-47.9033 -6.09688,-94.50001 0,-46.5967 0.75568,-58.3093 6.09688,-94.5 16.2897,-110.37549 60.4384,-213.92899 128.7538,-302 32.6573,-42.10125 74.0233,-83.46717 116.1245,-116.1245 76.0961,-59.02663 164.4502,-100.38929 258.0153,-120.7889 26.0516,-5.67994 50.1715,-9.37862 83.4847,-12.80204 16.9556,-1.74244 93.0444,-1.74244 110,0 55.1854,5.6711 97.9224,14.27931 143.1887,28.84148 225.3571,72.49727 395.322,264.89105 438.8446,496.75521 8.0703,42.99425 10.4667,70.61066 10.4667,120.61875 0,42.43951 -0.6663,53.85091 -5.0576,86.61871 -23.006,171.6712 -114.3046,327.0026 -253.9424,432.0465 -86.7286,65.2424 -191.2001,108.451 -298.1343,123.3059 -31.6529,4.3971 -43.926,5.1962 -84.3657,5.4929 -21.725,0.1594 -41.75,0.1128 -44.5,-0.1035 z m 85.5,-97.8808 c 213.2909,-18.1439 395.942,-157.1141 470.4387,-357.9335 22.7986,-61.4576 33.759,-123.4119 33.7982,-191.04621 0.017,-29.18644 -0.9408,-45.16632 -4.3082,-71.88141 -19.097,-151.50476 -101.954,-289.41926 -227.4577,-378.60033 -81.5052,-57.9164 -175.7527,-91.90739 -277.471,-100.07181 -18.6596,-1.49771 -65.3404,-1.49771 -84,0 -155.5679,12.48665 -295.2444,86.78187 -391.145,208.05355 -98.2258,124.21217 -138.0298,285.63497 -109.2358,443.00001 28.2167,154.2105 123.005,290.8529 257.8808,371.7489 81.1146,48.651 168.1136,74.3255 266.5,78.6474 12.9912,0.5707 47.8399,-0.4569 65,-1.9166 z m -95,-449.4797 0,-198.00001 48,0 48,0 0,198.00001 0,198 -48,0 -48,0 0,-198 z m 0,-350.00001 0,-48 48,0 48,0 0,48 0,48 -48,0 -48,0 0,-48 z"
         id="path4353"
         inkscape:connector-curvature="0" />
    </g>
  </g>
</svg>
